<svg xmlns="http://www.w3.org/2000/svg" xmlns:xlink="http://www.w3.org/1999/xlink" width="40" height="40" viewBox="0 0 40 40">
  <defs>
    <clipPath id="clip-path">
      <path id="Path_1465" data-name="Path 1465" d="M39.816-8a10.378,10.378,0,0,0-.416-3.049c-.484-1.7-.922-3.416-1.378-5.124a8.238,8.238,0,0,1-.381-1.316c-.095-.335-.192-.668-.281-1q-.422-1.589-.841-3.178A7.024,7.024,0,0,1,36.162-23c-.268-.662-.376-.738-.992-.686a1.013,1.013,0,0,1,.076-.551.153.153,0,0,1,.041-.181,19.618,19.618,0,0,1,.43-2.3.156.156,0,0,1,.027-.176.608.608,0,0,1,.065-.357.148.148,0,0,1,.03-.176c.011-.059.022-.119.03-.178a.309.309,0,0,1,.051-.265c.014-.089.03-.178.043-.268a1.489,1.489,0,0,1,.127-.622c.014-.089.027-.176.038-.265l.049-.178.122-.708a.539.539,0,0,1,.068-.354.628.628,0,0,1,.062-.357.148.148,0,0,1,.03-.176.336.336,0,0,1,.051-.268.156.156,0,0,1,.03-.178c.173-.995.351-1.992.522-2.986.027-.168.105-.23.268-.2.027.005.059.005.086.011,1.046.119,1.046.119.868,1.151-.035.2-.086.4-.13.6a.149.149,0,0,1-.038.178,5.809,5.809,0,0,1-.227,1.238l-.041.178c-.041.235-.084.473-.124.708a.321.321,0,0,1-.057.265,2.581,2.581,0,0,1-.132.8.146.146,0,0,1-.041.178.564.564,0,0,1-.057.351c-.011.059-.024.119-.035.178-.192,1.084-.368,2.168-.584,3.246-.062.308.005.424.3.462.246.032.486.1.732.146.135-.032.151-.157.195-.259.13-.754.251-1.508.389-2.262q.669-3.624,1.343-7.251c.089-.489-.086-.746-.589-.851-.3-.062-.608-.108-.914-.159-.97-.17-.97-.17-.749-1.135a1.491,1.491,0,0,0-.357-1.424l-.559-.292a.282.282,0,0,1-.268-.057,3.037,3.037,0,0,1-.795-.116.327.327,0,0,1-.268-.062h-.532l-.178.065a1.669,1.669,0,0,0-.727.641.178.178,0,0,1-.076.178c-.038.205-.076.414-.111.619a.166.166,0,0,1-.051.184l-.049.349c-.016.059-.032.119-.049.181-.041.235-.081.47-.122.708a.327.327,0,0,1-.057.268,2.835,2.835,0,0,1-.138.795.15.15,0,0,1-.041.181c-.019.116-.035.235-.051.351a.174.174,0,0,1-.041.181l-.024.176a.16.16,0,0,1-.054.181l-.049.349c-.016.059-.032.119-.051.178a2.511,2.511,0,0,1-.122.708.306.306,0,0,1-.057.268,1.467,1.467,0,0,1-.011.219q-.762,4.168-1.53,8.338l-.068,0q-.308-3.438-.614-6.87a.175.175,0,0,1-.084-.178,1.368,1.368,0,0,0-1.108-.622c-1.37,0-2.741.011-4.111.016a1.545,1.545,0,0,0-.905.884l-.381,4.235a.453.453,0,0,1-.041.359,3.434,3.434,0,0,1-.062.881.151.151,0,0,1-.024.184l-.024.262a8.167,8.167,0,0,1-.086,1.232l.008,1.241c0,.622,0,.622.635.643.4.038.676,0,.624-.551-.065-.695-.016-.7.7-.7.176,0,.351.008.527.014h2.359c.235-.005.468-.014.7-.014.686,0,.686,0,.643.711q0,2.659-.005,5.316c0,.176,0,.354,0,.53,0,.308,0,.616,0,.924v3.686c0,.4.143.911-.049,1.157-.205.262-.743.078-1.135.084-1.135.014-2.27-.005-3.405.011-.286,0-.368-.073-.365-.365.014-2.154.005-4.305.005-6.459,0-.622,0-.622-.608-.646-.638.022-.641.022-.638.686,0,2.095-.008,4.189.011,6.284,0,.378-.078.514-.484.5-.759-.03-.759-.005-.762-.784q0-5.6-.008-11.2c0-.292.022-.449.392-.454.457,0,.141-.414.246-.614l-.016-.6q-2.436-.012-4.873-.027c-.065.014-.086-.011-.073-.073,0-.205,0-.414,0-.619,0-.514,0-1.024,0-1.538q0-2.732,0-5.465c0-.5,0-1.005,0-1.511-.035-.695-.035-.695-.63-.719a1.691,1.691,0,0,1-.308.014c-.262-.032-.319.089-.316.33.014.754,0,1.505,0,2.259,0,3.735-.014,7.47,0,11.208,0,.405-.114.492-.492.478-.749-.027-.749-.008-.749-.743,0-5.154.005-10.308-.011-15.459,0-.435.095-.632.551-.554a.983.983,0,0,0,.308-.008c.305-.046.443.068.395.384a1.512,1.512,0,0,0,0,.222c0,.616,0,.616.619.654.616-.024.616-.024.616-.635,0-.8.005-1.595,0-2.392a1.858,1.858,0,0,0-1.862-1.946A1.867,1.867,0,0,0,14.351-37.9l-.016,2.035c0,.5,0,1.005,0,1.511q0,2.7,0,5.405c0,.511,0,1.022,0,1.532v4.232a.075.075,0,0,1,.005.078c0,1.122,0,2.243.008,3.365,0,.246-.035.376-.332.373s-.286-.17-.284-.373q.008-1.682.005-3.365a.075.075,0,0,1,.005-.078q0-1.95,0-3.9c0-.5,0-1.005,0-1.508q0-2.749,0-5.495c-.008-.532-.016-1.065-.022-1.6-.4-1.186-.8-2.373-1.211-3.557-.219-.635-.527-.751-1.1-.438-.324.622-.435,1.322-.716,1.957a11.512,11.512,0,0,0-.692,5.276c.008.308-.011.616-.016.927,0,.5,0,1.005,0,1.508q0,2.7,0,5.405c0,.5.005,1,.005,1.5,0,1.122,0,2.243.008,3.365,0,.2.014.368-.286.37s-.335-.127-.332-.373c.011-1.122.008-2.243.011-3.365,0-.381,0-.762,0-1.143q0-2.749,0-5.495c0-.5,0-1.005,0-1.508q0-2.749,0-5.495c0-.5,0-1.005,0-1.511-.005-.308,0-.619-.016-.927a.62.62,0,0,0-.668-.662q-2.432-.012-4.868,0a.621.621,0,0,0-.668.662c-.008.162-.011.324-.016.484,0,.5,0,1.005,0,1.511q0,2.749,0,5.495c0,.532,0,1.065,0,1.6q.008,1.618.014,3.232c0,.649,0,.649.616.684.624-.035.624-.035.624-.681V-38.024c0-.6,0-.6.622-.562H8.051q.093-.024.073.073l0,1.859c.005.392.016.784.019,1.176.005.622,0,.622-.619.584l-1.157,0c-.686.041-.686.041-.727.727-.105.554.257.565.641.551H7.519c.616-.035.616-.035.616.559v1.327c0,.6,0,.6-.616.559-.532.005-1.062.019-1.595.011-.208,0-.268.057-.278.27-.041.978-.049.978.938.978.427,0,.857.008,1.284-.008.216-.008.276.062.27.276-.014.546,0,1.092,0,1.638,0,.595,0,.595-.622.562l-1.6-.005q-.308-.024-.284.284c.005.243.016.484.016.727,0,.138,0,.259.181.268H7.511c.616-.035.616-.035.616.559v1.327c0,.6,0,.6-.616.559-.53.005-1.062.019-1.592.011-.2,0-.27.049-.281.268-.041.984-.051.984.935.984.427,0,.857.008,1.281-.005.205-.008.284.046.278.268-.014.854,0,1.711-.008,2.565-.005.541-.414.159-.614.257-.946.005-1.889,0-2.835.022-.265.005-.276-.114-.276-.314.008-.708,0-1.416,0-2.127,0-.643,0-.643-.624-.681a.783.783,0,0,1-.176.014c-.368-.068-.481.073-.451.443a3.882,3.882,0,0,1-.03,1.227c-.292,1.195-.649,2.373-.978,3.559a.162.162,0,0,1-.057.178c-.011.059-.022.119-.032.176q-.381,1.374-.762,2.751C1.1-13.405.9-12.681.724-11.951A12.273,12.273,0,0,0,.068-9.162C.038-6.43.057-3.7.057-.968c0,.643.2.846.846.846H38.919c.668,0,.862-.2.862-.873C39.805-3.335,39.778-5.668,39.816-8ZM29.211-23.714c-1.281,0-2.565-.011-3.846.008-.316.005-.4-.084-.37-.395q.243-2.753.449-5.505c.019-.257.119-.332.357-.308.146.016.295.014.441.019.941-.005,1.881-.011,2.824-.022.192,0,.254.081.265.259q.2,2.659.414,5.319C29.83-23.714,29.83-23.714,29.211-23.714Zm-11.13,1.849c0-.624,0-.624.622-.589.719-.005,1.441,0,2.159-.019.257-.005.324.095.319.335-.011.808-.016,1.616,0,2.424.005.278-.1.354-.359.343-.47-.024-.941-.022-1.411-.03-1.335.13-1.335.13-1.335-1.186v-1.278Zm-2.5-15.876c.041-.562.241-.878.651-.865.395.014.573.314.611.862.043.63-.419.284-.643.392C15.957-37.43,15.541-37.154,15.584-37.741Zm-4.011,1.414c.081-.254.043-.692.314-.686.224.005.246.454.286.719.043.281-.219.124-.332.181C11.714-36.149,11.489-36.057,11.573-36.327Zm-.319,2.008a2.576,2.576,0,0,1,.014-.359.356.356,0,0,1,.014-.062.2.2,0,0,1,.014-.032.239.239,0,0,1,.016-.027c.068-.092.219-.084.551-.065.632-.032.63-.032.63.6q0,6.7-.008,13.4c0,.4-.005.8.014,1.195.011.241-.086.292-.308.3-.932.032-.932.041-.932-.908Q11.253-27.3,11.254-34.319ZM4.216-18.13q8.291.016,16.576,0c.305,0,.4.073.4.389q-.02,3.677,0,7.357c0,.4-.23.311-.454.33-.3.027-.3-.141-.259-.354a5.585,5.585,0,0,0-4.03-6.3l-.127-.041a10.534,10.534,0,0,0-6.089.935,7.289,7.289,0,0,0-1.454.827c-.33.249-.527.257-.638-.178a1.314,1.314,0,0,0-.086-.2c-.054-.049-.1-.127-.165-.143a5.682,5.682,0,0,0-2.568-.027c-.273.051-.276.384-.276.643,0,1.462-.014,2.924.011,4.386.005.37-.095.473-.465.462-.784-.027-.784-.005-.784-.8,0-2.289.008-4.578-.008-6.868C3.795-18.049,3.884-18.132,4.216-18.13Zm12.262,4.854a2.51,2.51,0,0,0-2.865-.105c-1.014.657-1.254,1.576-.857,3.292h0a1.52,1.52,0,0,1-.957-.078h0c-.035-.014-.068-.027-.1-.043a5.52,5.52,0,0,1-.5-.262l-.081-.046c-.122-.068-.243-.135-.368-.195-.149-.073-.105-.262-.111-.408a4.345,4.345,0,0,1,3.927-4.511,4.348,4.348,0,0,1,4.673,3.519,4.322,4.322,0,0,1-.022,1.757c-.041.189-.095.314-.338.3-.559-.019-1.119-.005-1.714-.005C17.649-11.524,17.414-12.557,16.478-13.276Zm-.273,1.949a1.251,1.251,0,0,1-1.224,1.257,1.254,1.254,0,0,1-1.235-1.2A1.251,1.251,0,0,1,14.97-12.53,1.252,1.252,0,0,1,16.205-11.327ZM6.451-14.381c.257.019.6-.208.768.205q.685,1.654,1.4,3.3a1.53,1.53,0,0,0,.543.8c-.943,0-1.741-.014-2.538.008-.295.008-.335-.105-.332-.359.014-1.2,0-2.392.014-3.589C6.3-14.141,6.178-14.4,6.451-14.381Zm2.476,1.054c-.081-.176-.011-.265.124-.365a5.212,5.212,0,0,1,1.243-.719,9.813,9.813,0,0,0-.919,2.132C9.227-12.627,9.084-12.981,8.927-13.327ZM1.63-10.5c.284-1.059.576-2.119.862-3.178a.678.678,0,0,1,.07.019c0,1.089,0,2.178,0,3.268,0,.119.059.3-.135.322a1.5,1.5,0,0,1-.781-.027C1.489-10.173,1.595-10.368,1.63-10.5ZM29.8-1.457c-.211.254-.722.078-1.1.081-1.965.008-3.93,0-5.895.011-.316,0-.392-.089-.389-.395.016-1.314.005-2.63.005-3.946,0-.614,0-.614-.622-.643-.205.073-.446-.078-.632.1q0,1.816,0,3.632c.07,1.243.07,1.243-1.149,1.243q-9.109,0-18.219.005c-.381,0-.492-.078-.487-.478.022-2.186.016-4.373,0-6.559,0-.319.062-.446.408-.422.484.035.973.016,1.459.022h4.7l1.6,0,5.354,0,1.562,0q2.351,0,4.7,0,.089-.016.073.073v.886c.03.5.438.157.635.284a2.546,2.546,0,0,1,.351-.014c.211.019.3-.062.273-.273a.23.23,0,0,1,0-.043c.035-.922.035-.924.984-.927.295,0,.586.008.881.014h4.557c.073-.005.143-.014.216-.014.843-.005.843-.005.8.849q0,2.676,0,5.351C29.868-2.219,30.022-1.719,29.8-1.457ZM36.078-18.2l.068-.011q.519,1.909,1.041,3.819c.354,1.295.7,2.589,1.065,3.878.1.351.038.484-.351.465-.5-.027-1-.008-1.505-.005-.17,0-.322.005-.322-.243Q36.081-14.249,36.078-18.2ZM34.132-32.711c.268-1.392.535-2.781.781-4.176.065-.368.149-.527.584-.422.835.2.841.17.684,1-.273,1.465-.546,2.93-.808,4.395-.041.224-.095.373-.341.305C33.932-31.681,33.935-31.681,34.132-32.711ZM31.643-19.1c.265-1.459.527-2.922.8-4.381q.6-3.255,1.216-6.505c.116-.614.124-.614.732-.457.7.1.689.1.559.795Q34-24.535,33.065-19.419q-.786,4.249-1.578,8.492c-.041.216-.073.435-.105.654-.014.086-.016.192-.135.195-.157,0-.13-.13-.135-.227s0-.205,0-.311c0-1.492.032-2.984-.011-4.473A20.011,20.011,0,0,1,31.643-19.1Zm3.195,8.73c0,.265-.1.319-.338.314-.516-.014-1.032-.016-1.549,0-.265.008-.319-.07-.268-.332.386-2.041.759-4.084,1.132-6.127q.478-2.607.954-5.211l.059-.016Q34.834-16.058,34.838-10.373Zm2.565,9c-1.962,0-3.922-.008-5.884.008-.332,0-.414-.087-.414-.416q.024-3.316,0-6.632c0-.33.081-.435.414-.414.484.032.973.019,1.457.022h2.835l1.6,0c.354,0,.708,0,1.062,0q.089-.016.073.073v4.519c0,.532,0,1.065,0,1.595C38.611-1.37,38.611-1.37,37.4-1.37Z" fill="none"/>
    </clipPath>
    <clipPath id="clip-path-2">
      <path id="Path_1467" data-name="Path 1467" d="M17.462-33.651a1.692,1.692,0,0,1-.308.014c-.262-.032-.319.089-.316.33.011.754,0,1.505,0,2.259,0,3.735-.014,7.47,0,11.208,0,.405-.114.492-.495.478-.749-.027-.749-.008-.749-.743,0-5.154.005-10.305-.011-15.459,0-.435.095-.632.551-.554a.983.983,0,0,0,.308-.008c.305-.046.443.068.395.386a1.517,1.517,0,0,0,0,.222c0,.616,0,.616.619.654C17.462-34.465,17.462-34.059,17.462-33.651Z" fill="none"/>
    </clipPath>
    <clipPath id="clip-path-3">
      <path id="Path_1469" data-name="Path 1469" d="M3.8-24.973c.624.038.624.038.624.659,0,.578,0,.578-.624.616-.714-.035-.714-.035-.708-.716C3.1-24.93,3.1-24.93,3.8-24.973Z" fill="none"/>
    </clipPath>
    <clipPath id="clip-path-4">
      <path id="Path_1471" data-name="Path 1471" d="M8.051-15.37c-.054-.049-.1-.127-.165-.143a5.682,5.682,0,0,0-2.568-.027c-.273.051-.276.384-.276.643,0,1.462-.014,2.924.011,4.386.005.37-.095.473-.465.462-.784-.027-.784-.005-.784-.8,0-2.289.008-4.578-.008-6.868,0-.332.087-.416.416-.416q8.286.016,16.576,0c.305,0,.4.073.4.389q-.02,3.677,0,7.357c0,.4-.23.311-.454.33-.3.027-.3-.141-.259-.354a5.585,5.585,0,0,0-4.03-6.3l-.127-.041c-.032-.1-.116-.116-.2-.146a6.081,6.081,0,0,0-2.335-.265,10.842,10.842,0,0,0-5.241,1.643A.786.786,0,0,1,8.051-15.37Z" fill="none"/>
    </clipPath>
    <clipPath id="clip-path-5">
      <path id="Path_1473" data-name="Path 1473" d="M29.854-2.616q0-2.676,0-5.351c.046-.854.046-.854-.8-.849-.073,0-.143.011-.216.014H24.286c-.295-.005-.586-.014-.881-.014-.946,0-.946.005-.984.927a.231.231,0,0,0,0,.043c.027.211-.065.292-.273.273a2.546,2.546,0,0,0-.351.014c-.2-.127-.605.219-.635-.284V-8.73L21.089-8.8l-4.7,0-1.562,0-5.354,0-1.6,0h-4.7c-.486,0-.976.016-1.459-.022-.346-.024-.411.1-.408.422.014,2.186.019,4.373,0,6.559-.005.4.106.478.487.478Q10.9-1.381,20.014-1.37c1.219,0,1.219,0,1.149-1.243q0-1.816,0-3.632c.186-.181.427-.03.632-.1.622.03.622.03.622.643,0,1.316.011,2.63-.005,3.946,0,.305.073.4.389.395,1.965-.016,3.93,0,5.895-.011.378,0,.889.173,1.1-.081S29.868-2.219,29.854-2.616ZM19.332-7.43c0-.435.222-.727.559-.757.359-.03.614.238.668.7,0,.5,0,1-.005,1.505,0,.454,0,.905,0,1.359,0,.432-.222.743-.559.751a.621.621,0,0,1-.668-.605c0-.5,0-1,.005-1.505C19.33-6.465,19.33-6.946,19.332-7.43Zm9.6.216c.073-.059.127-.192.249-.127.089.049.054.159.054.243,0,.838.008,1.676,0,2.516a.663.663,0,0,1-.624.716.669.669,0,0,1-.592-.705c-.014-.53-.008-1.059-.011-1.589,0-.084,0-.168,0-.251C28.414-6.576,28.619-6.957,28.935-7.214ZM24.286-4.208a.318.318,0,0,0,.073-.008.3.3,0,0,1-.073.008Z" fill="none"/>
    </clipPath>
    <clipPath id="clip-path-6">
      <path id="Path_1475" data-name="Path 1475" d="M19.332-7.43c0,.484,0,.965,0,1.449h0C19.33-6.465,19.33-6.946,19.332-7.43Z" fill="none"/>
    </clipPath>
    <clipPath id="clip-path-7">
      <path id="Path_1477" data-name="Path 1477" d="M17.168-10.057c.478-1.468.246-2.5-.689-3.219a2.51,2.51,0,0,0-2.865-.105c-1.014.657-1.254,1.576-.857,3.292-.795.2-1.37-.319-2.008-.622-.149-.07-.105-.262-.111-.408a4.345,4.345,0,0,1,3.924-4.511,4.348,4.348,0,0,1,4.673,3.519,4.37,4.37,0,0,1-.019,1.757c-.041.189-.095.314-.338.3C18.322-10.07,17.762-10.057,17.168-10.057Z" fill="none"/>
    </clipPath>
    <clipPath id="clip-path-8">
      <path id="Path_1479" data-name="Path 1479" d="M29.857-11.3a.764.764,0,0,1-.078-.005c.027-.027.051-.054.076-.081v-3.6c0-.308,0-.616,0-.924,0-.178,0-.354,0-.532q0-2.659.005-5.316c.043-.711.043-.711-.643-.711-.235,0-.468.008-.7.014h-2.27c-.027.027-.054.051-.081.076a.382.382,0,0,1-.005-.078c-.176-.005-.351-.014-.527-.014-.716,0-.765,0-.7.7.051.557-.222.589-.624.551V-20a1.888,1.888,0,0,1,.392.016c.47.127.143.5.2.751.03.135.208.47-.2.484-.132.005-.262.008-.392.011,0,.405,0,.811,0,1.216.608.022.608.022.608.646,0,2.151.008,4.305-.005,6.457,0,.292.076.368.365.365,1.135-.016,2.27,0,3.405-.011.392-.005.93.178,1.135-.084C30-10.392,29.854-10.905,29.857-11.3ZM28.03-13.424c0,.678,0,1.354,0,2.032-.365.205-.759.046-1.138.086-.065.008-.122-.032-.111-.1.049-.292-.122-.578-.022-.87,0-.354,0-.711,0-1.065q0-2.745,0-5.492c0-.5,0-1.008,0-1.511.062-.284-.119-.67.089-.838.173-.141.535-.051.814-.065s.414.086.362.392a2.065,2.065,0,0,0,.014.427q0,2.749,0,5.495Q28.026-14.182,28.03-13.424Z" fill="none"/>
    </clipPath>
    <clipPath id="clip-path-9">
      <path id="Path_1481" data-name="Path 1481" d="M29.211-23.714c-1.281,0-2.565-.011-3.846.008-.316,0-.4-.084-.37-.4q.243-2.753.449-5.505c.019-.257.119-.335.357-.308.146.016.295.014.441.019.941-.005,1.881-.008,2.822-.022.192,0,.254.081.268.259q.2,2.659.414,5.319C29.83-23.714,29.83-23.714,29.211-23.714Z" fill="none"/>
    </clipPath>
    <clipPath id="clip-path-10">
      <path id="Path_1483" data-name="Path 1483" d="M24.3-18.735c0,.405,0,.811,0,1.216-.638.022-.641.022-.641.686,0,2.095-.008,4.189.011,6.284,0,.378-.078.514-.484.5-.759-.03-.759-.005-.759-.784q0-5.6-.008-11.2c0-.292.022-.449.392-.454.457-.005.141-.414.246-.616h.6l.008,1.241c0,.622,0,.622.635.643V-20c-.2.054-.535-.114-.595.114a2.046,2.046,0,0,0,0,1.038C23.762-18.622,24.095-18.789,24.3-18.735Z" fill="none"/>
    </clipPath>
    <clipPath id="clip-path-11">
      <path id="Path_1485" data-name="Path 1485" d="M34.832-21.746q0,5.688.005,11.373c0,.268-.1.319-.338.314-.516-.014-1.032-.016-1.549,0-.265.008-.319-.07-.268-.332.386-2.041.759-4.084,1.132-6.127q.478-2.607.954-5.211Z" fill="none"/>
    </clipPath>
    <clipPath id="clip-path-12">
      <path id="Path_1487" data-name="Path 1487" d="M8.151-22.205c-.014.854,0,1.711-.008,2.565-.005.541-.414.159-.614.257-.946.005-1.889,0-2.835.022-.265.005-.276-.114-.276-.314.008-.708,0-1.416,0-2.127,0-.643,0-.643-.624-.681v-1.211c.624-.038.624-.038.624-.616,0-.622,0-.622-.624-.657v-1.205c.624-.035.624-.035.624-.681v-11.17c0-.6,0-.6.622-.562H8.054l.073.073,0,1.859c.005.392.016.784.019,1.176.005.622,0,.622-.619.584l-1.157,0c-.686.041-.686.041-.727.727-.105.554.257.565.641.551H7.522c.616-.035.616-.035.616.559v1.327c0,.6,0,.6-.616.559-.532.005-1.062.019-1.595.011-.208,0-.268.057-.278.27-.041.978-.049.978.938.978.427,0,.857.008,1.284-.008.216-.008.276.062.27.276-.014.546,0,1.092,0,1.638,0,.595,0,.595-.622.562l-1.6-.005q-.308-.024-.284.284c.005.243.016.484.016.727,0,.138,0,.259.181.268H7.514c.616-.035.616-.035.616.559v1.327c0,.6,0,.6-.616.559-.53.005-1.062.019-1.592.011-.2,0-.27.049-.281.268-.041.984-.051.984.935.984.427,0,.857.008,1.281-.005C8.078-22.481,8.154-22.427,8.151-22.205Z" fill="none"/>
    </clipPath>
    <clipPath id="clip-path-13">
      <path id="Path_1489" data-name="Path 1489" d="M36.146-18.214q.519,1.909,1.041,3.819c.354,1.295.7,2.589,1.065,3.878.1.349.041.484-.349.465-.5-.027-1-.008-1.505-.005-.17,0-.322.005-.322-.241q.008-3.953,0-7.905A.583.583,0,0,1,36.146-18.214Z" fill="none"/>
    </clipPath>
    <clipPath id="clip-path-14">
      <path id="Path_1491" data-name="Path 1491" d="M12.492-19.665c.011.241-.086.292-.308.3-.932.032-.932.041-.932-.908V-34.316c0-.581,0-.581.608-.546.632-.032.63-.032.63.6q0,6.7-.008,13.4C12.484-20.462,12.473-20.062,12.492-19.665Z" fill="none"/>
    </clipPath>
    <clipPath id="clip-path-15">
      <path id="Path_1493" data-name="Path 1493" d="M35.035-31.6c-1.1-.078-1.1-.078-.9-1.108.268-1.389.535-2.781.781-4.176.065-.368.149-.524.584-.419.835.2.841.17.684,1-.273,1.465-.546,2.93-.805,4.395C35.338-31.681,35.281-31.532,35.035-31.6Z" fill="none"/>
    </clipPath>
    <clipPath id="clip-path-16">
      <path id="Path_1495" data-name="Path 1495" d="M9.159-10.07c-.943,0-1.741-.014-2.538.008-.292.008-.335-.105-.332-.359.011-1.2,0-2.392.014-3.589,0-.132-.124-.392.149-.37.257.019.595-.208.768.205q.685,1.654,1.4,3.3A1.526,1.526,0,0,0,9.159-10.07Z" fill="none"/>
    </clipPath>
    <clipPath id="clip-path-17">
      <path id="Path_1497" data-name="Path 1497" d="M34.951-29.654q-.945,5.116-1.881,10.23-.786,4.249-1.578,8.495c-.041.216-.073.435-.105.654-.014.089-.016.192-.132.195-.157,0-.13-.13-.135-.227s0-.205,0-.311c0-1.492.032-2.984-.011-4.473a19.814,19.814,0,0,1,.543-4.011c.265-1.459.527-2.922.8-4.384q.6-3.255,1.216-6.505c.116-.614.124-.614.732-.457C35.089-30.349,35.081-30.351,34.951-29.654Z" fill="none"/>
    </clipPath>
    <clipPath id="clip-path-18">
      <path id="Path_1499" data-name="Path 1499" d="M14.978-10.07a1.254,1.254,0,0,1-1.235-1.2A1.25,1.25,0,0,1,14.97-12.53a1.252,1.252,0,0,1,1.235,1.2A1.248,1.248,0,0,1,14.978-10.07Z" fill="none"/>
    </clipPath>
    <clipPath id="clip-path-19">
      <path id="Path_1501" data-name="Path 1501" d="M38.549-2.614c0-.532,0-1.062,0-1.595V-8.727L38.473-8.8c-.354,0-.708,0-1.062,0l-1.6,0H32.978c-.486-.005-.973.011-1.457-.022-.332-.024-.416.081-.414.414q.024,3.316,0,6.632c0,.33.078.419.414.416,1.962-.016,3.922-.008,5.884-.008C38.611-1.37,38.611-1.37,38.549-2.614ZM37.93-4.67c0,.486-.268.819-.63.8s-.589-.332-.589-.8c0-.9,0-1.8-.005-2.7a1.963,1.963,0,0,1,.1-.562c.057-.054.111-.111.168-.168.624-.178.957.07.959.724C37.935-6.47,37.932-5.57,37.93-4.67Z" fill="none"/>
    </clipPath>
    <clipPath id="clip-path-20">
      <path id="Path_1503" data-name="Path 1503" d="M8.051-15.37a.785.785,0,0,0,.492-.151,10.9,10.9,0,0,1,5.241-1.643,6.081,6.081,0,0,1,2.335.265c.086.03.17.051.2.146a10.555,10.555,0,0,0-6.089.932,7.424,7.424,0,0,0-1.454.827c-.33.249-.527.257-.638-.178C8.119-15.238,8.081-15.3,8.051-15.37Z" fill="none"/>
    </clipPath>
    <clipPath id="clip-path-21">
      <path id="Path_1505" data-name="Path 1505" d="M10-23.1c0,1.122,0,2.243.008,3.365,0,.2.014.368-.286.373s-.335-.127-.332-.373C9.4-20.857,9.4-21.978,9.4-23.1Z" fill="none"/>
    </clipPath>
    <clipPath id="clip-path-22">
      <path id="Path_1507" data-name="Path 1507" d="M13.824-23.108h.443l.038.011.041,0c0,1.122,0,2.243.008,3.365,0,.246-.035.376-.332.373s-.286-.17-.284-.373q.008-1.682.005-3.365l.041,0Z" fill="none"/>
    </clipPath>
    <clipPath id="clip-path-23">
      <path id="Path_1509" data-name="Path 1509" d="M21.184-19.711c.005.278-.1.357-.359.343-.47-.024-.941-.022-1.411-.03-1.335.13-1.335.13-1.335-1.186v-1.281c0-.624,0-.624.622-.589.719-.005,1.441,0,2.159-.019.257-.005.324.095.319.335C21.17-21.327,21.168-20.519,21.184-19.711Z" fill="none"/>
    </clipPath>
    <clipPath id="clip-path-24">
      <path id="Path_1511" data-name="Path 1511" d="M2.562-13.659c0,1.089,0,2.178,0,3.268,0,.119.059.3-.135.322a1.5,1.5,0,0,1-.781-.03c-.157-.07-.049-.265-.014-.4q.426-1.589.862-3.178A.534.534,0,0,1,2.562-13.659Z" fill="none"/>
    </clipPath>
    <clipPath id="clip-path-25">
      <path id="Path_1513" data-name="Path 1513" d="M16.2-37.351c-.243-.081-.662.2-.616-.389.041-.562.238-.878.651-.865.395.014.573.314.611.859C16.889-37.114,16.427-37.459,16.2-37.351Z" fill="none"/>
    </clipPath>
    <clipPath id="clip-path-26">
      <path id="Path_1515" data-name="Path 1515" d="M9.376-12.276c-.149-.351-.289-.7-.449-1.049-.081-.176-.011-.265.124-.365a5.251,5.251,0,0,1,1.243-.722A9.522,9.522,0,0,0,9.376-12.276Z" fill="none"/>
    </clipPath>
    <clipPath id="clip-path-27">
      <path id="Path_1517" data-name="Path 1517" d="M11.841-36.116c-.127-.035-.354.059-.268-.214.078-.251.043-.692.314-.686.224,0,.246.454.286.719C12.216-36.014,11.954-36.173,11.841-36.116Z" fill="none"/>
    </clipPath>
    <clipPath id="clip-path-28">
      <path id="Path_1519" data-name="Path 1519" d="M26.238-22.454l-.081.076a.712.712,0,0,1-.005-.078C26.178-22.454,26.208-22.454,26.238-22.454Z" fill="none"/>
    </clipPath>
    <clipPath id="clip-path-29">
      <path id="Path_1521" data-name="Path 1521" d="M38.546-8.73,38.473-8.8C38.535-8.814,38.557-8.789,38.546-8.73Z" fill="none"/>
    </clipPath>
    <clipPath id="clip-path-30">
      <path id="Path_1523" data-name="Path 1523" d="M29.781-11.308l.076-.081v.086A.357.357,0,0,1,29.781-11.308Z" fill="none"/>
    </clipPath>
    <clipPath id="clip-path-31">
      <path id="Path_1525" data-name="Path 1525" d="M21.165-8.73,21.092-8.8Q21.185-8.819,21.165-8.73Z" fill="none"/>
    </clipPath>
    <clipPath id="clip-path-32">
      <path id="Path_1527" data-name="Path 1527" d="M8.132-38.516l-.073-.073C8.122-38.6,8.146-38.581,8.132-38.516Z" fill="none"/>
    </clipPath>
    <clipPath id="clip-path-33">
      <path id="Path_1529" data-name="Path 1529" d="M20.559-7.486c0,.5,0,1-.005,1.505,0,.454,0,.905,0,1.359,0,.432-.222.743-.559.751a.621.621,0,0,1-.668-.605c0-.5,0-1,.005-1.505,0-.484,0-.965,0-1.449,0-.435.222-.727.559-.757C20.249-8.214,20.505-7.946,20.559-7.486Z" fill="none"/>
    </clipPath>
    <clipPath id="clip-path-34">
      <path id="Path_1531" data-name="Path 1531" d="M27.722-7.486c0,.5,0,1-.005,1.505,0,.454,0,.905,0,1.359,0,.432-.222.743-.559.751a.62.62,0,0,1-.668-.605c0-.5,0-1,.005-1.505,0-.484,0-.965,0-1.449,0-.435.222-.727.559-.757C27.411-8.214,27.668-7.946,27.722-7.486Z" fill="none"/>
    </clipPath>
    <clipPath id="clip-path-36">
      <path id="Path_1535" data-name="Path 1535" d="M29.251-7.486c0,.5,0,1-.005,1.505,0,.454,0,.905,0,1.359,0,.432-.222.743-.559.751a.62.62,0,0,1-.668-.605c0-.5,0-1,.005-1.505,0-.484,0-.965,0-1.449,0-.435.222-.727.559-.757C28.941-8.214,29.2-7.946,29.251-7.486Z" fill="none"/>
    </clipPath>
    <clipPath id="clip-path-37">
      <path id="Path_1537" data-name="Path 1537" d="M27.654-21.249c.281-.019.414.086.362.392a2.064,2.064,0,0,0,.014.427q0,2.749,0,5.495c0,.5,0,1.008,0,1.511,0,.678,0,1.357,0,2.032-.365.208-.759.046-1.138.086-.065.008-.122-.032-.111-.1.049-.292-.122-.578-.022-.87,0-.354,0-.711,0-1.065q0-2.745,0-5.492c0-.5,0-1.008,0-1.511.062-.286-.119-.67.092-.841C27.014-21.324,27.376-21.235,27.654-21.249Z" fill="none"/>
    </clipPath>
    <clipPath id="clip-path-38">
      <path id="Path_1539" data-name="Path 1539" d="M24.3-18.735c-.2-.054-.535.114-.595-.114a2.046,2.046,0,0,1,0-1.038c.062-.224.392-.057.595-.114a1.705,1.705,0,0,1,.392.016c.47.127.143.5.2.751.03.135.208.47-.2.484C24.559-18.741,24.43-18.738,24.3-18.735Z" fill="none"/>
    </clipPath>
    <clipPath id="clip-path-39">
      <path id="Path_1541" data-name="Path 1541" d="M36.8-7.927l.168-.168c.624-.178.957.068.959.724q0,1.35,0,2.7c0,.486-.268.819-.63.8s-.589-.332-.589-.8c0-.9,0-1.8-.005-2.7A2.169,2.169,0,0,1,36.8-7.927Z" fill="none"/>
    </clipPath>
  </defs>
  <g id="Office-supplies" transform="translate(-91 -292)">
    <rect id="Rectangle_3502" data-name="Rectangle 3502" width="40" height="40" transform="translate(91 292)" fill="#fff"/>
    <g id="Group_1043" data-name="Group 1043" transform="translate(90.949 331.852)">
      <g id="Group_1004" data-name="Group 1004" clip-path="url(#clip-path)">
        <path id="Path_1464" data-name="Path 1464" d="M-4.949-44.852H44.817V4.878H-4.949Z" fill="#010101"/>
      </g>
      <g id="Group_1005" data-name="Group 1005" clip-path="url(#clip-path-2)">
        <path id="Path_1466" data-name="Path 1466" d="M10.589-41.137H22.462v26.776H10.589Z" fill="#fd4101"/>
      </g>
      <g id="Group_1006" data-name="Group 1006" clip-path="url(#clip-path-3)">
        <path id="Path_1468" data-name="Path 1468" d="M-1.909-29.973H9.424V-18.7H-1.909Z" fill="#010101"/>
      </g>
      <g id="Group_1007" data-name="Group 1007" clip-path="url(#clip-path-4)">
        <path id="Path_1470" data-name="Path 1470" d="M-1.2-23.132H26.189V-5.048H-1.2Z" fill="#4731c3"/>
      </g>
      <g id="Group_1008" data-name="Group 1008" clip-path="url(#clip-path-5)">
        <path id="Path_1472" data-name="Path 1472" d="M-3.692-13.827h38.61V3.681H-3.692Z" fill="#4731c3"/>
      </g>
      <g id="Group_1009" data-name="Group 1009" clip-path="url(#clip-path-6)">
        <path id="Path_1474" data-name="Path 1474" d="M14.33-12.43h10V-.981h-10Z" fill="#66a3fd"/>
      </g>
      <g id="Group_1010" data-name="Group 1010" clip-path="url(#clip-path-7)">
        <path id="Path_1476" data-name="Path 1476" d="M5.634-20.653H24.315V-5.045H5.634Z" fill="#c3cee3"/>
      </g>
      <g id="Group_1011" data-name="Group 1011" clip-path="url(#clip-path-8)">
        <path id="Path_1478" data-name="Path 1478" d="M19.3-27.476H34.909V-5.007H19.3Z" fill="#f7f9fa"/>
      </g>
      <g id="Group_1012" data-name="Group 1012" clip-path="url(#clip-path-9)">
        <path id="Path_1480" data-name="Path 1480" d="M19.99-34.921H34.784v16.216H19.99Z" fill="#009047"/>
      </g>
      <g id="Group_1013" data-name="Group 1013" clip-path="url(#clip-path-10)">
        <path id="Path_1482" data-name="Path 1482" d="M17.419-28.1H29.3V-5.05H17.419Z" fill="#4731c3"/>
      </g>
      <g id="Group_1014" data-name="Group 1014" clip-path="url(#clip-path-11)">
        <path id="Path_1484" data-name="Path 1484" d="M27.666-26.746H39.838V-5.059H27.666Z" fill="#4731c3"/>
      </g>
      <g id="Group_1015" data-name="Group 1015" clip-path="url(#clip-path-12)">
        <path id="Path_1486" data-name="Path 1486" d="M-1.2-43.6H13.151v29.257H-1.2Z" fill="#e1e7ec"/>
      </g>
      <g id="Group_1016" data-name="Group 1016" clip-path="url(#clip-path-13)">
        <path id="Path_1488" data-name="Path 1488" d="M31.076-23.214H43.294V-5.05H31.076Z" fill="#4731c3"/>
      </g>
      <g id="Group_1017" data-name="Group 1017" clip-path="url(#clip-path-14)">
        <path id="Path_1490" data-name="Path 1490" d="M6.251-39.875H17.493v25.52H6.251Z" fill="#ffa300"/>
      </g>
      <g id="Group_1018" data-name="Group 1018" clip-path="url(#clip-path-15)">
        <path id="Path_1492" data-name="Path 1492" d="M29.032-42.338H41.26v15.752H29.032Z" fill="#fd4101"/>
      </g>
      <g id="Group_1019" data-name="Group 1019" clip-path="url(#clip-path-16)">
        <path id="Path_1494" data-name="Path 1494" d="M1.274-19.426H14.159V-5.062H1.274Z" fill="#ffa300"/>
      </g>
      <g id="Group_1020" data-name="Group 1020" clip-path="url(#clip-path-17)">
        <path id="Path_1496" data-name="Path 1496" d="M26.1-35.536H40.02V-5.081H26.1Z" fill="#009047"/>
      </g>
      <g id="Group_1021" data-name="Group 1021" clip-path="url(#clip-path-18)">
        <path id="Path_1498" data-name="Path 1498" d="M8.743-17.53H21.206V-5.07H8.743Z" fill="#ffa300"/>
      </g>
      <g id="Group_1022" data-name="Group 1022" clip-path="url(#clip-path-19)">
        <path id="Path_1500" data-name="Path 1500" d="M26.108-13.825H43.57V3.641H26.108Z" fill="#4731c3"/>
      </g>
      <g id="Group_1023" data-name="Group 1023" clip-path="url(#clip-path-20)">
        <path id="Path_1502" data-name="Path 1502" d="M3.051-22.177h18.27V-9.823H3.051Z" fill="#375474"/>
      </g>
      <g id="Group_1024" data-name="Group 1024" clip-path="url(#clip-path-21)">
        <path id="Path_1504" data-name="Path 1504" d="M4.389-28.1H15.008v13.738H4.389Z" fill="#4731c3"/>
      </g>
      <g id="Group_1025" data-name="Group 1025" clip-path="url(#clip-path-22)">
        <path id="Path_1506" data-name="Path 1506" d="M8.737-28.108H19.354v13.746H8.737Z" fill="#4731c3"/>
      </g>
      <g id="Group_1026" data-name="Group 1026" clip-path="url(#clip-path-23)">
        <path id="Path_1508" data-name="Path 1508" d="M13.078-27.473H26.184v13.13H13.078Z" fill="#4731c3"/>
      </g>
      <g id="Group_1027" data-name="Group 1027" clip-path="url(#clip-path-24)">
        <path id="Path_1510" data-name="Path 1510" d="M-3.439-18.678H7.568V-5.033H-3.439Z" fill="#4731c3"/>
      </g>
      <g id="Group_1028" data-name="Group 1028" clip-path="url(#clip-path-25)">
        <path id="Path_1512" data-name="Path 1512" d="M10.583-43.606H21.851v11.254H10.583Z" fill="#c3cee3"/>
      </g>
      <g id="Group_1029" data-name="Group 1029" clip-path="url(#clip-path-26)">
        <path id="Path_1514" data-name="Path 1514" d="M3.893-19.411h11.4V-7.276H3.893Z" fill="#4a74ba"/>
      </g>
      <g id="Group_1030" data-name="Group 1030" clip-path="url(#clip-path-27)">
        <path id="Path_1516" data-name="Path 1516" d="M6.554-42.016H17.178v10.9H6.554Z" fill="#212124"/>
      </g>
      <g id="Group_1031" data-name="Group 1031" clip-path="url(#clip-path-28)">
        <path id="Path_1518" data-name="Path 1518" d="M21.151-27.457H31.238v10.078H21.151Z" fill="#e1e7ec"/>
      </g>
      <g id="Group_1032" data-name="Group 1032" clip-path="url(#clip-path-29)">
        <path id="Path_1520" data-name="Path 1520" d="M33.473-13.805H43.549V-3.73H33.473Z" fill="#609af1"/>
      </g>
      <g id="Group_1033" data-name="Group 1033" clip-path="url(#clip-path-30)">
        <path id="Path_1522" data-name="Path 1522" d="M24.781-16.389H34.857V-6.3H24.781Z" fill="#e1e7ec"/>
      </g>
      <g id="Group_1034" data-name="Group 1034" clip-path="url(#clip-path-31)">
        <path id="Path_1524" data-name="Path 1524" d="M16.092-13.805H26.168V-3.73H16.092Z" fill="#609af1"/>
      </g>
      <g id="Group_1035" data-name="Group 1035" clip-path="url(#clip-path-32)">
        <path id="Path_1526" data-name="Path 1526" d="M3.059-43.593H13.136v10.077H3.059Z" fill="#e1e7ec"/>
      </g>
      <g id="Group_1036" data-name="Group 1036" clip-path="url(#clip-path-33)">
        <path id="Path_1528" data-name="Path 1528" d="M14.324-13.188H25.559V1.13H14.324Z" fill="#f7f9fa"/>
      </g>
      <g id="Group_1037" data-name="Group 1037" clip-path="url(#clip-path-34)">
        <path id="Path_1530" data-name="Path 1530" d="M21.486-13.188H32.722V1.13H21.486Z" fill="#f7f9fa"/>
      </g>
      <g id="Group_1038" data-name="Group 1038" clip-path="url(#clip-path-5)">
        <path id="Path_1532" data-name="Path 1532" d="M-3.692-13.827h38.61V3.681H-3.692Z" fill="#4731c3"/>
      </g>
      <g id="Group_1039" data-name="Group 1039" clip-path="url(#clip-path-36)">
        <path id="Path_1534" data-name="Path 1534" d="M23.016-13.188H34.251V1.13H23.016Z" fill="#f7f9fa"/>
      </g>
      <g id="Group_1040" data-name="Group 1040" clip-path="url(#clip-path-37)">
        <path id="Path_1536" data-name="Path 1536" d="M21.725-26.264H33.03V-6.283H21.725Z" fill="#010101"/>
      </g>
      <g id="Group_1041" data-name="Group 1041" clip-path="url(#clip-path-38)">
        <path id="Path_1538" data-name="Path 1538" d="M18.636-25.007H29.951v11.282H18.636Z" fill="#010101"/>
      </g>
      <g id="Group_1042" data-name="Group 1042" clip-path="url(#clip-path-39)">
        <path id="Path_1540" data-name="Path 1540" d="M31.705-13.151H42.932V1.133H31.705Z" fill="#f7f9fa"/>
      </g>
    </g>
  </g>
</svg>
